<svg xmlns="http://www.w3.org/2000/svg" width="97" height="97" fill="none"><path fill="#323232" d="M5.389 53.889h32.333a5.389 5.389 0 0 0 5.39-5.389V5.389A5.389 5.389 0 0 0 37.721 0H5.39A5.389 5.389 0 0 0 0 5.389V48.5a5.389 5.389 0 0 0 5.389 5.389ZM0 91.61A5.389 5.389 0 0 0 5.389 97h32.333a5.389 5.389 0 0 0 5.39-5.389V70.056a5.389 5.389 0 0 0-5.39-5.39H5.39A5.389 5.389 0 0 0 0 70.057V91.61Zm53.889 0A5.389 5.389 0 0 0 59.278 97H91.61A5.389 5.389 0 0 0 97 91.611V53.89a5.389 5.389 0 0 0-5.389-5.389H59.278a5.389 5.389 0 0 0-5.39 5.389V91.61Zm5.389-53.889H91.61A5.389 5.389 0 0 0 97 32.333V5.39A5.389 5.389 0 0 0 91.611 0H59.278a5.389 5.389 0 0 0-5.39 5.389v26.944a5.389 5.389 0 0 0 5.39 5.39Z"/></svg>